<svg xmlns="http://www.w3.org/2000/svg" version="1.1" xmlns:xlink="http://www.w3.org/1999/xlink" xmlns:svgjs="http://svgjs.dev/svgjs" width="1440" height="560" preserveAspectRatio="none" viewBox="0 0 1440 560"><g mask="url(&quot;#SvgjsMask1411&quot;)" fill="none"><rect width="1440" height="560" x="0" y="0" fill="url(&quot;#SvgjsLinearGradient1412&quot;)"></rect><path d="M579.03 316.58 a108.33 108.33 0 1 0 216.66 0 a108.33 108.33 0 1 0 -216.66 0z" fill="rgba(172, 170, 170, 0.4)" class="triangle-float2"></path><path d="M1005.12 185.38 a140.4 140.4 0 1 0 280.8 0 a140.4 140.4 0 1 0 -280.8 0z" fill="rgba(172, 170, 170, 0.4)" class="triangle-float2"></path><path d="M244.88 123.41 a115.93 115.93 0 1 0 231.86 0 a115.93 115.93 0 1 0 -231.86 0z" fill="rgba(172, 170, 170, 0.4)" class="triangle-float1"></path><path d="M977.1 495.65 a184.42 184.42 0 1 0 368.84 0 a184.42 184.42 0 1 0 -368.84 0z" fill="rgba(172, 170, 170, 0.4)" class="triangle-float3"></path><path d="M-51.97 367.77 a128.49 128.49 0 1 0 256.98 0 a128.49 128.49 0 1 0 -256.98 0z" fill="rgba(172, 170, 170, 0.4)" class="triangle-float1"></path><path d="M-135.12 535.91 a150.38 150.38 0 1 0 300.76 0 a150.38 150.38 0 1 0 -300.76 0z" fill="rgba(172, 170, 170, 0.4)" class="triangle-float1"></path><path d="M444.28 475.36 a149.45 149.45 0 1 0 298.9 0 a149.45 149.45 0 1 0 -298.9 0z" fill="rgba(172, 170, 170, 0.4)" class="triangle-float1"></path><path d="M-118.56 293.61 a135.1 135.1 0 1 0 270.2 0 a135.1 135.1 0 1 0 -270.2 0z" fill="rgba(172, 170, 170, 0.4)" class="triangle-float2"></path><path d="M754.1 279.58 a117.53 117.53 0 1 0 235.06 0 a117.53 117.53 0 1 0 -235.06 0z" fill="rgba(172, 170, 170, 0.4)" class="triangle-float1"></path><path d="M-69.19 452 a95.65 95.65 0 1 0 191.3 0 a95.65 95.65 0 1 0 -191.3 0z" fill="rgba(172, 170, 170, 0.4)" class="triangle-float2"></path></g><defs><mask id="SvgjsMask1411"><rect width="1440" height="560" fill="#ffffff"></rect></mask><linearGradient x1="15.28%" y1="-39.29%" x2="84.72%" y2="139.29%" gradientUnits="userSpaceOnUse" id="SvgjsLinearGradient1412"><stop stop-color="rgba(0, 0, 0, 1)" offset="0"></stop><stop stop-color="rgba(77, 77, 77, 1)" offset="1"></stop></linearGradient><style>
                @keyframes float1 {
                    0%{transform: translate(0, 0)}
                    50%{transform: translate(-10px, 0)}
                    100%{transform: translate(0, 0)}
                }

                .triangle-float1 {
                    animation: float1 5s infinite;
                }

                @keyframes float2 {
                    0%{transform: translate(0, 0)}
                    50%{transform: translate(-5px, -5px)}
                    100%{transform: translate(0, 0)}
                }

                .triangle-float2 {
                    animation: float2 4s infinite;
                }

                @keyframes float3 {
                    0%{transform: translate(0, 0)}
                    50%{transform: translate(0, -10px)}
                    100%{transform: translate(0, 0)}
                }

                .triangle-float3 {
                    animation: float3 6s infinite;
                }
            </style></defs></svg>