<svg xmlns="http://www.w3.org/2000/svg" version="1.1" xmlns:xlink="http://www.w3.org/1999/xlink" xmlns:svgjs="http://svgjs.dev/svgjs" width="1440" height="560" preserveAspectRatio="none" viewBox="0 0 1440 560"><g mask="url(&quot;#SvgjsMask1897&quot;)" fill="none"><rect width="1440" height="560" x="0" y="0" fill="url(&quot;#SvgjsLinearGradient1898&quot;)"></rect><path d="M64.84 -28.78L129.79 8.72L129.79 83.72L64.84 121.22L-0.11 83.72L-0.11 8.72zM129.79 83.72L194.75 121.22L194.75 196.22L129.79 233.72L64.84 196.22L64.84 121.22zM64.84 421.22L129.79 458.72L129.79 533.72L64.84 571.22L-0.11 533.72L-0.11 458.72zM194.75 421.22L259.7 458.72L259.7 533.72L194.75 571.22L129.79 533.72L129.79 458.72zM389.61 83.72L454.56 121.22L454.56 196.22L389.61 233.72L324.65 196.22L324.65 121.22zM389.61 308.72L454.56 346.22L454.56 421.22L389.61 458.72L324.65 421.22L324.65 346.22zM324.65 421.22L389.61 458.72L389.61 533.72L324.65 571.22L259.7 533.72L259.7 458.72zM389.61 533.72L454.56 571.22L454.56 646.22L389.61 683.72L324.65 646.22L324.65 571.22zM454.56 -28.78L519.52 8.72L519.52 83.72L454.56 121.22L389.61 83.72L389.61 8.72zM714.38 -28.78L779.33 8.72L779.33 83.72L714.38 121.22L649.42 83.72L649.42 8.72zM779.33 308.72L844.29 346.22L844.29 421.22L779.33 458.72L714.38 421.22L714.38 346.22zM779.33 533.72L844.29 571.22L844.29 646.22L779.33 683.72L714.38 646.22L714.38 571.22zM844.28 196.22L909.24 233.72L909.24 308.72L844.28 346.22L779.33 308.72L779.33 233.72zM909.24 308.72L974.19 346.22L974.19 421.22L909.24 458.72L844.28 421.22L844.28 346.22zM974.19 421.22L1039.15 458.72L1039.15 533.72L974.19 571.22L909.24 533.72L909.24 458.72zM1039.15 533.72L1104.1 571.22L1104.1 646.22L1039.15 683.72L974.19 646.22L974.19 571.22zM1298.96 533.72L1363.91 571.22L1363.91 646.22L1298.96 683.72L1234.01 646.22L1234.01 571.22zM1363.91 196.22L1428.87 233.72L1428.87 308.72L1363.91 346.22L1298.96 308.72L1298.96 233.72zM1428.87 308.72L1493.82 346.22L1493.82 421.22L1428.87 458.72L1363.91 421.22L1363.91 346.22z" stroke="rgba(255, 255, 255, 1)" stroke-width="2"></path><path d="M57.34 -28.78 a7.5 7.5 0 1 0 15 0 a7.5 7.5 0 1 0 -15 0zM122.29 8.72 a7.5 7.5 0 1 0 15 0 a7.5 7.5 0 1 0 -15 0zM122.29 83.72 a7.5 7.5 0 1 0 15 0 a7.5 7.5 0 1 0 -15 0zM57.34 121.22 a7.5 7.5 0 1 0 15 0 a7.5 7.5 0 1 0 -15 0zM-7.61 83.72 a7.5 7.5 0 1 0 15 0 a7.5 7.5 0 1 0 -15 0zM-7.61 8.72 a7.5 7.5 0 1 0 15 0 a7.5 7.5 0 1 0 -15 0zM187.25 121.22 a7.5 7.5 0 1 0 15 0 a7.5 7.5 0 1 0 -15 0zM187.25 196.22 a7.5 7.5 0 1 0 15 0 a7.5 7.5 0 1 0 -15 0zM122.29 233.72 a7.5 7.5 0 1 0 15 0 a7.5 7.5 0 1 0 -15 0zM57.34 196.22 a7.5 7.5 0 1 0 15 0 a7.5 7.5 0 1 0 -15 0zM57.34 421.22 a7.5 7.5 0 1 0 15 0 a7.5 7.5 0 1 0 -15 0zM122.29 458.72 a7.5 7.5 0 1 0 15 0 a7.5 7.5 0 1 0 -15 0zM122.29 533.72 a7.5 7.5 0 1 0 15 0 a7.5 7.5 0 1 0 -15 0zM57.34 571.22 a7.5 7.5 0 1 0 15 0 a7.5 7.5 0 1 0 -15 0zM-7.61 533.72 a7.5 7.5 0 1 0 15 0 a7.5 7.5 0 1 0 -15 0zM-7.61 458.72 a7.5 7.5 0 1 0 15 0 a7.5 7.5 0 1 0 -15 0zM187.25 421.22 a7.5 7.5 0 1 0 15 0 a7.5 7.5 0 1 0 -15 0zM252.2 458.72 a7.5 7.5 0 1 0 15 0 a7.5 7.5 0 1 0 -15 0zM252.2 533.72 a7.5 7.5 0 1 0 15 0 a7.5 7.5 0 1 0 -15 0zM187.25 571.22 a7.5 7.5 0 1 0 15 0 a7.5 7.5 0 1 0 -15 0zM382.11 83.72 a7.5 7.5 0 1 0 15 0 a7.5 7.5 0 1 0 -15 0zM447.06 121.22 a7.5 7.5 0 1 0 15 0 a7.5 7.5 0 1 0 -15 0zM447.06 196.22 a7.5 7.5 0 1 0 15 0 a7.5 7.5 0 1 0 -15 0zM382.11 233.72 a7.5 7.5 0 1 0 15 0 a7.5 7.5 0 1 0 -15 0zM317.15 196.22 a7.5 7.5 0 1 0 15 0 a7.5 7.5 0 1 0 -15 0zM317.15 121.22 a7.5 7.5 0 1 0 15 0 a7.5 7.5 0 1 0 -15 0zM382.11 308.72 a7.5 7.5 0 1 0 15 0 a7.5 7.5 0 1 0 -15 0zM447.06 346.22 a7.5 7.5 0 1 0 15 0 a7.5 7.5 0 1 0 -15 0zM447.06 421.22 a7.5 7.5 0 1 0 15 0 a7.5 7.5 0 1 0 -15 0zM382.11 458.72 a7.5 7.5 0 1 0 15 0 a7.5 7.5 0 1 0 -15 0zM317.15 421.22 a7.5 7.5 0 1 0 15 0 a7.5 7.5 0 1 0 -15 0zM317.15 346.22 a7.5 7.5 0 1 0 15 0 a7.5 7.5 0 1 0 -15 0zM382.11 533.72 a7.5 7.5 0 1 0 15 0 a7.5 7.5 0 1 0 -15 0zM317.15 571.22 a7.5 7.5 0 1 0 15 0 a7.5 7.5 0 1 0 -15 0zM447.06 571.22 a7.5 7.5 0 1 0 15 0 a7.5 7.5 0 1 0 -15 0zM447.06 646.22 a7.5 7.5 0 1 0 15 0 a7.5 7.5 0 1 0 -15 0zM382.11 683.72 a7.5 7.5 0 1 0 15 0 a7.5 7.5 0 1 0 -15 0zM317.15 646.22 a7.5 7.5 0 1 0 15 0 a7.5 7.5 0 1 0 -15 0zM447.06 -28.78 a7.5 7.5 0 1 0 15 0 a7.5 7.5 0 1 0 -15 0zM512.02 8.72 a7.5 7.5 0 1 0 15 0 a7.5 7.5 0 1 0 -15 0zM512.02 83.72 a7.5 7.5 0 1 0 15 0 a7.5 7.5 0 1 0 -15 0zM382.11 8.72 a7.5 7.5 0 1 0 15 0 a7.5 7.5 0 1 0 -15 0zM706.88 -28.78 a7.5 7.5 0 1 0 15 0 a7.5 7.5 0 1 0 -15 0zM771.83 8.72 a7.5 7.5 0 1 0 15 0 a7.5 7.5 0 1 0 -15 0zM771.83 83.72 a7.5 7.5 0 1 0 15 0 a7.5 7.5 0 1 0 -15 0zM706.88 121.22 a7.5 7.5 0 1 0 15 0 a7.5 7.5 0 1 0 -15 0zM641.92 83.72 a7.5 7.5 0 1 0 15 0 a7.5 7.5 0 1 0 -15 0zM641.92 8.72 a7.5 7.5 0 1 0 15 0 a7.5 7.5 0 1 0 -15 0zM771.83 308.72 a7.5 7.5 0 1 0 15 0 a7.5 7.5 0 1 0 -15 0zM836.79 346.22 a7.5 7.5 0 1 0 15 0 a7.5 7.5 0 1 0 -15 0zM836.79 421.22 a7.5 7.5 0 1 0 15 0 a7.5 7.5 0 1 0 -15 0zM771.83 458.72 a7.5 7.5 0 1 0 15 0 a7.5 7.5 0 1 0 -15 0zM706.88 421.22 a7.5 7.5 0 1 0 15 0 a7.5 7.5 0 1 0 -15 0zM706.88 346.22 a7.5 7.5 0 1 0 15 0 a7.5 7.5 0 1 0 -15 0zM771.83 533.72 a7.5 7.5 0 1 0 15 0 a7.5 7.5 0 1 0 -15 0zM836.79 571.22 a7.5 7.5 0 1 0 15 0 a7.5 7.5 0 1 0 -15 0zM836.79 646.22 a7.5 7.5 0 1 0 15 0 a7.5 7.5 0 1 0 -15 0zM771.83 683.72 a7.5 7.5 0 1 0 15 0 a7.5 7.5 0 1 0 -15 0zM706.88 646.22 a7.5 7.5 0 1 0 15 0 a7.5 7.5 0 1 0 -15 0zM706.88 571.22 a7.5 7.5 0 1 0 15 0 a7.5 7.5 0 1 0 -15 0zM836.78 196.22 a7.5 7.5 0 1 0 15 0 a7.5 7.5 0 1 0 -15 0zM901.74 233.72 a7.5 7.5 0 1 0 15 0 a7.5 7.5 0 1 0 -15 0zM901.74 308.72 a7.5 7.5 0 1 0 15 0 a7.5 7.5 0 1 0 -15 0zM836.78 346.22 a7.5 7.5 0 1 0 15 0 a7.5 7.5 0 1 0 -15 0zM771.83 233.72 a7.5 7.5 0 1 0 15 0 a7.5 7.5 0 1 0 -15 0zM966.69 346.22 a7.5 7.5 0 1 0 15 0 a7.5 7.5 0 1 0 -15 0zM966.69 421.22 a7.5 7.5 0 1 0 15 0 a7.5 7.5 0 1 0 -15 0zM901.74 458.72 a7.5 7.5 0 1 0 15 0 a7.5 7.5 0 1 0 -15 0zM836.78 421.22 a7.5 7.5 0 1 0 15 0 a7.5 7.5 0 1 0 -15 0zM1031.65 458.72 a7.5 7.5 0 1 0 15 0 a7.5 7.5 0 1 0 -15 0zM1031.65 533.72 a7.5 7.5 0 1 0 15 0 a7.5 7.5 0 1 0 -15 0zM966.69 571.22 a7.5 7.5 0 1 0 15 0 a7.5 7.5 0 1 0 -15 0zM901.74 533.72 a7.5 7.5 0 1 0 15 0 a7.5 7.5 0 1 0 -15 0zM1096.6 571.22 a7.5 7.5 0 1 0 15 0 a7.5 7.5 0 1 0 -15 0zM1096.6 646.22 a7.5 7.5 0 1 0 15 0 a7.5 7.5 0 1 0 -15 0zM1031.65 683.72 a7.5 7.5 0 1 0 15 0 a7.5 7.5 0 1 0 -15 0zM966.69 646.22 a7.5 7.5 0 1 0 15 0 a7.5 7.5 0 1 0 -15 0zM1291.46 533.72 a7.5 7.5 0 1 0 15 0 a7.5 7.5 0 1 0 -15 0zM1356.41 571.22 a7.5 7.5 0 1 0 15 0 a7.5 7.5 0 1 0 -15 0zM1356.41 646.22 a7.5 7.5 0 1 0 15 0 a7.5 7.5 0 1 0 -15 0zM1291.46 683.72 a7.5 7.5 0 1 0 15 0 a7.5 7.5 0 1 0 -15 0zM1226.51 646.22 a7.5 7.5 0 1 0 15 0 a7.5 7.5 0 1 0 -15 0zM1226.51 571.22 a7.5 7.5 0 1 0 15 0 a7.5 7.5 0 1 0 -15 0zM1356.41 196.22 a7.5 7.5 0 1 0 15 0 a7.5 7.5 0 1 0 -15 0zM1421.37 233.72 a7.5 7.5 0 1 0 15 0 a7.5 7.5 0 1 0 -15 0zM1421.37 308.72 a7.5 7.5 0 1 0 15 0 a7.5 7.5 0 1 0 -15 0zM1356.41 346.22 a7.5 7.5 0 1 0 15 0 a7.5 7.5 0 1 0 -15 0zM1291.46 308.72 a7.5 7.5 0 1 0 15 0 a7.5 7.5 0 1 0 -15 0zM1291.46 233.72 a7.5 7.5 0 1 0 15 0 a7.5 7.5 0 1 0 -15 0zM1486.32 346.22 a7.5 7.5 0 1 0 15 0 a7.5 7.5 0 1 0 -15 0zM1486.32 421.22 a7.5 7.5 0 1 0 15 0 a7.5 7.5 0 1 0 -15 0zM1421.37 458.72 a7.5 7.5 0 1 0 15 0 a7.5 7.5 0 1 0 -15 0zM1356.41 421.22 a7.5 7.5 0 1 0 15 0 a7.5 7.5 0 1 0 -15 0z" fill="rgba(255, 255, 255, 1)"></path><path d="M16.95 -23.01L60.25 1.99L60.25 51.99L16.95 76.99L-26.35 51.99L-26.35 1.99zM60.25 201.99L103.56 226.99L103.56 276.99L60.25 301.99L16.95 276.99L16.95 226.99zM60.25 501.99L103.56 526.99L103.56 576.99L60.25 601.99L16.95 576.99L16.95 526.99zM103.56 126.99L146.86 151.99L146.86 201.99L103.56 226.99L60.25 201.99L60.25 151.99zM146.86 201.99L190.16 226.99L190.16 276.99L146.86 301.99L103.56 276.99L103.56 226.99zM103.56 276.99L146.86 301.99L146.86 351.99L103.56 376.99L60.25 351.99L60.25 301.99zM146.86 501.99L190.16 526.99L190.16 576.99L146.86 601.99L103.56 576.99L103.56 526.99zM233.46 51.99L276.76 76.99L276.76 126.99L233.46 151.99L190.16 126.99L190.16 76.99zM190.16 276.99L233.46 301.99L233.46 351.99L190.16 376.99L146.86 351.99L146.86 301.99zM190.16 426.99L233.46 451.99L233.46 501.99L190.16 526.99L146.86 501.99L146.86 451.99zM233.46 501.99L276.76 526.99L276.76 576.99L233.46 601.99L190.16 576.99L190.16 526.99zM276.76 276.99L320.07 301.99L320.07 351.99L276.76 376.99L233.46 351.99L233.46 301.99zM276.76 426.99L320.07 451.99L320.07 501.99L276.76 526.99L233.46 501.99L233.46 451.99zM320.07 501.99L363.37 526.99L363.37 576.99L320.07 601.99L276.76 576.99L276.76 526.99zM363.37 -23.01L406.67 1.99L406.67 51.99L363.37 76.99L320.07 51.99L320.07 1.99zM406.67 51.99L449.98 76.99L449.98 126.99L406.67 151.99L363.37 126.99L363.37 76.99zM406.67 201.99L449.98 226.99L449.98 276.99L406.67 301.99L363.37 276.99L363.37 226.99zM406.67 351.99L449.98 376.99L449.98 426.99L406.67 451.99L363.37 426.99L363.37 376.99zM363.37 426.99L406.67 451.99L406.67 501.99L363.37 526.99L320.07 501.99L320.07 451.99zM449.98 -23.01L493.28 1.99L493.28 51.99L449.98 76.99L406.67 51.99L406.67 1.99zM493.28 351.99L536.58 376.99L536.58 426.99L493.28 451.99L449.98 426.99L449.98 376.99zM493.28 501.99L536.58 526.99L536.58 576.99L493.28 601.99L449.98 576.99L449.98 526.99zM579.88 51.99L623.19 76.99L623.19 126.99L579.88 151.99L536.58 126.99L536.58 76.99zM536.58 126.99L579.88 151.99L579.88 201.99L536.58 226.99L493.28 201.99L493.28 151.99zM536.58 276.99L579.88 301.99L579.88 351.99L536.58 376.99L493.28 351.99L493.28 301.99zM579.88 351.99L623.19 376.99L623.19 426.99L579.88 451.99L536.58 426.99L536.58 376.99zM536.58 426.99L579.88 451.99L579.88 501.99L536.58 526.99L493.28 501.99L493.28 451.99zM579.88 501.99L623.19 526.99L623.19 576.99L579.88 601.99L536.58 576.99L536.58 526.99zM666.49 51.99L709.79 76.99L709.79 126.99L666.49 151.99L623.19 126.99L623.19 76.99zM623.19 276.99L666.49 301.99L666.49 351.99L623.19 376.99L579.88 351.99L579.88 301.99zM623.19 426.99L666.49 451.99L666.49 501.99L623.19 526.99L579.88 501.99L579.88 451.99zM709.79 -23.01L753.09 1.99L753.09 51.99L709.79 76.99L666.49 51.99L666.49 1.99zM753.09 201.99L796.4 226.99L796.4 276.99L753.09 301.99L709.79 276.99L709.79 226.99zM709.79 276.99L753.09 301.99L753.09 351.99L709.79 376.99L666.49 351.99L666.49 301.99zM753.09 501.99L796.4 526.99L796.4 576.99L753.09 601.99L709.79 576.99L709.79 526.99zM839.7 51.99L883 76.99L883 126.99L839.7 151.99L796.4 126.99L796.4 76.99zM796.4 126.99L839.7 151.99L839.7 201.99L796.4 226.99L753.09 201.99L753.09 151.99zM839.7 201.99L883 226.99L883 276.99L839.7 301.99L796.4 276.99L796.4 226.99zM926.3 51.99L969.61 76.99L969.61 126.99L926.3 151.99L883 126.99L883 76.99zM926.3 201.99L969.61 226.99L969.61 276.99L926.3 301.99L883 276.99L883 226.99zM969.61 126.99L1012.91 151.99L1012.91 201.99L969.61 226.99L926.3 201.99L926.3 151.99zM969.61 276.99L1012.91 301.99L1012.91 351.99L969.61 376.99L926.3 351.99L926.3 301.99zM1012.91 351.99L1056.21 376.99L1056.21 426.99L1012.91 451.99L969.61 426.99L969.61 376.99zM1012.91 501.99L1056.21 526.99L1056.21 576.99L1012.91 601.99L969.61 576.99L969.61 526.99zM1099.51 201.99L1142.82 226.99L1142.82 276.99L1099.51 301.99L1056.21 276.99L1056.21 226.99zM1056.21 276.99L1099.51 301.99L1099.51 351.99L1056.21 376.99L1012.91 351.99L1012.91 301.99zM1099.51 351.99L1142.82 376.99L1142.82 426.99L1099.51 451.99L1056.21 426.99L1056.21 376.99zM1142.82 126.99L1186.12 151.99L1186.12 201.99L1142.82 226.99L1099.51 201.99L1099.51 151.99zM1186.12 351.99L1229.42 376.99L1229.42 426.99L1186.12 451.99L1142.82 426.99L1142.82 376.99zM1229.42 126.99L1272.72 151.99L1272.72 201.99L1229.42 226.99L1186.12 201.99L1186.12 151.99zM1316.03 -23.01L1359.33 1.99L1359.33 51.99L1316.03 76.99L1272.72 51.99L1272.72 1.99zM1316.03 126.99L1359.33 151.99L1359.33 201.99L1316.03 226.99L1272.72 201.99L1272.72 151.99zM1359.33 351.99L1402.63 376.99L1402.63 426.99L1359.33 451.99L1316.03 426.99L1316.03 376.99zM1316.03 426.99L1359.33 451.99L1359.33 501.99L1316.03 526.99L1272.72 501.99L1272.72 451.99zM1402.63 -23.01L1445.93 1.99L1445.93 51.99L1402.63 76.99L1359.33 51.99L1359.33 1.99zM1402.63 126.99L1445.93 151.99L1445.93 201.99L1402.63 226.99L1359.33 201.99L1359.33 151.99zM1445.93 201.99L1489.24 226.99L1489.24 276.99L1445.93 301.99L1402.63 276.99L1402.63 226.99z" stroke="rgba(36, 36, 36, 1)" stroke-width="2"></path></g><defs><mask id="SvgjsMask1897"><rect width="1440" height="560" fill="#ffffff"></rect></mask><linearGradient x1="84.72%" y1="-39.29%" x2="15.28%" y2="139.29%" gradientUnits="userSpaceOnUse" id="SvgjsLinearGradient1898"><stop stop-color="rgba(112, 112, 112, 1)" offset="0"></stop><stop stop-color="rgba(15, 15, 15, 1)" offset="1"></stop></linearGradient></defs></svg>