<svg xmlns="http://www.w3.org/2000/svg" version="1.1" xmlns:xlink="http://www.w3.org/1999/xlink" xmlns:svgjs="http://svgjs.dev/svgjs" width="1440" height="560" preserveAspectRatio="none" viewBox="0 0 1440 560"><g mask="url(&quot;#SvgjsMask1117&quot;)" fill="none"><rect width="1440" height="560" x="0" y="0" fill="url(&quot;#SvgjsLinearGradient1118&quot;)"></rect><path d="M -151.49619279691274,254 C -55.5,288.6 136.5,429.8 328.50380720308726,427 C 520.5,424.2 616.5,234.8 808.5038072030873,240 C 1000.5,245.2 1096.5,449.6 1288.5038072030873,453 C 1480.5,456.4 1738.2,274.6 1768.5038072030873,257 C 1798.8,239.4 1505.7,343.4 1440,365" stroke="rgba(255, 255, 255, 0.58)" stroke-width="2"></path><path d="M -567.5241001445099,60 C -471.52,123.4 -279.52,351 -87.52410014450994,377 C 104.48,403 200.48,167.6 392.47589985549007,190 C 584.48,212.4 680.48,487.6 872.4758998554901,489 C 1064.48,490.4 1238.97,230.4 1352.47589985549,197 C 1465.98,163.6 1422.5,297 1440,322" stroke="rgba(255, 255, 255, 0.58)" stroke-width="2"></path><path d="M -537.4572425243416,58 C -441.46,131.4 -249.46,412.6 -57.457242524341616,425 C 134.54,437.4 230.54,138.4 422.5427574756584,120 C 614.54,101.6 710.54,302.4 902.5427574756584,333 C 1094.54,363.6 1275.05,277 1382.5427574756584,273 C 1490.03,269 1428.51,305 1440,313" stroke="rgba(255, 255, 255, 0.58)" stroke-width="2"></path><path d="M -237.77952419423897,167 C -141.78,212 50.22,411.8 242.22047580576103,392 C 434.22,372.2 530.22,66.6 722.220475805761,68 C 914.22,69.4 1010.22,376.4 1202.220475805761,399 C 1394.22,421.6 1634.66,183.6 1682.220475805761,181 C 1729.78,178.4 1488.44,345 1440,386" stroke="rgba(255, 255, 255, 0.58)" stroke-width="2"></path><path d="M -948.0878184849735,397 C -852.09,364.2 -660.09,235.8 -468.0878184849734,233 C -276.09,230.2 -180.09,379.6 11.912181515026589,383 C 203.91,386.4 299.91,263.4 491.9121815150266,250 C 683.91,236.6 782.29,317.2 971.9121815150265,316 C 1161.53,314.8 1346.38,258.4 1440,244" stroke="rgba(255, 255, 255, 0.58)" stroke-width="2"></path></g><defs><mask id="SvgjsMask1117"><rect width="1440" height="560" fill="#ffffff"></rect></mask><linearGradient x1="84.72%" y1="-39.29%" x2="15.28%" y2="139.29%" gradientUnits="userSpaceOnUse" id="SvgjsLinearGradient1118"><stop stop-color="rgba(112, 112, 112, 1)" offset="0"></stop><stop stop-color="rgba(15, 15, 15, 1)" offset="1"></stop></linearGradient></defs></svg>